<svg id="Capa_1" enable-background="new 0 0 512 512" height="512" viewBox="0 0 512 512" width="512" xmlns="http://www.w3.org/2000/svg"><g><path d="m462 20h-160.619c-5.522 0-10 4.477-10 10s4.478 10 10 10h160.619c16.542 0 30 13.458 30 30v304c0 16.542-13.458 30-30 30h-138c-2.652 0-5.195 1.054-7.071 2.929l-50.929 50.929v-43.858c0-5.523-4.478-10-10-10h-206c-16.542 0-30-13.458-30-30v-304c0-16.542 13.458-30 30-30h161.381c5.522 0 10-4.477 10-10s-4.478-10-10-10h-161.381c-27.57 0-50 22.429-50 50v304c0 27.57 22.43 50 50 50h196v58c0 4.044 2.437 7.691 6.173 9.239 1.237.513 2.537.762 3.825.762 2.603 0 5.16-1.017 7.073-2.929l65.072-65.072h133.857c27.57 0 50-22.43 50-50v-304c0-27.571-22.43-50-50-50z"/><g><path d="m301.669 338.082c-7.952 0-15.604-3.205-20.469-8.574-3.708-4.093-10.032-4.404-14.125-.695-4.093 3.708-4.403 10.033-.695 14.125 8.593 9.483 21.785 15.144 35.289 15.144 16.859 0 31.017-10.758 33.663-25.581 1.991-11.154-3.072-25.726-23.256-33.171-9.826-3.625-18.975-7.572-21.783-8.802-2.177-1.75-2.104-4.189-1.958-5.206.203-1.412 1.229-4.863 6.363-6.41 11.279-3.395 21.734 4.864 22.018 5.091 4.226 3.505 10.497 2.947 14.037-1.264 3.554-4.228 3.007-10.536-1.221-14.089-.756-.635-18.74-15.472-40.603-8.887-11.044 3.327-18.857 12.032-20.392 22.718-1.439 10.026 2.907 19.671 11.343 25.17.441.288.905.541 1.387.755.463.207 11.479 5.11 23.887 9.687 3.508 1.294 11.551 4.945 10.489 10.892-.798 4.472-6.243 9.097-13.974 9.097z"/><path d="m196.266 323.131v-55.048c0-5.523-4.478-10-10-10s-10 4.477-10 10v55.048c0 12.072 5.775 21.883 17.165 29.16 5.998 3.833 12.767 5.781 20.117 5.791h.061c6.331 0 12.274-1.377 17.667-4.093 17.009-8.565 20.579-21.54 20.579-30.916v-54.991c0-5.523-4.478-10-10-10s-10 4.477-10 10v54.991c0 3.833-1.088 8.78-9.575 13.054-2.612 1.315-5.448 1.955-8.671 1.955-.011 0-.022 0-.034 0-3.53-.004-6.597-.869-9.374-2.645-6.585-4.207-7.935-7.962-7.935-12.306z"/></g><path d="m256.021 213.884h23.449c5.522 0 10-4.477 10-10s-4.478-10-10-10h-13.449v-69.933c0-5.523-4.478-10-10-10s-10 4.477-10 10v79.933c0 5.522 4.477 10 10 10z"/><path d="m205.47 193.884v-69.933c0-5.523-4.478-10-10-10s-10 4.477-10 10v79.933c0 5.523 4.478 10 10 10h23.449c5.522 0 10-4.477 10-10s-4.478-10-10-10z"/><path d="m82.187 134.21c5.522 0 10-4.477 10-10s-4.478-10-10-10h-32.187c-5.522 0-10 4.477-10 10v79.415c0 5.523 4.478 10 10 10s10-4.477 10-10v-30.459h19.63c5.522 0 10-4.477 10-10s-4.478-10-10-10h-19.63v-18.956z"/><path d="m386.521 205.854c1.597 4.831 6.042 8.063 11.077 8.063h.076c5.066-.033 9.508-3.331 11.051-8.208.026-.082.051-.165.075-.248l13.042-45.271 12.985 45.281c.037.13.077.259.119.387 1.599 4.828 6.043 8.058 11.076 8.058h.075c5.064-.033 9.506-3.329 11.05-8.203.125-.394.226-.794.301-1.2l14.565-78.629c1.006-5.43-2.581-10.648-8.012-11.654-5.428-1.006-10.647 2.581-11.654 8.011l-8.077 43.605-12.814-44.687c-1.374-4.792-6.063-7.835-11.004-7.146-4.302.604-7.643 3.89-8.432 8.022l-12.624 43.818-8.055-43.749c-1-5.431-6.216-9.022-11.646-8.023-5.432 1-9.024 6.214-8.024 11.646l14.509 78.798c.084.452.197.895.341 1.329z"/><path d="m136.518 113.917c-19.186 0-34.795 15.609-34.795 34.795v30.41c0 19.186 15.609 34.795 34.795 34.795h.253c19.186 0 34.795-15.609 34.795-34.795v-30.41c0-19.186-15.609-34.795-34.795-34.795zm15.047 34.796v30.41c0 8.158-6.637 14.795-14.795 14.795h-.253c-8.158 0-14.795-6.637-14.795-14.795v-30.41c0-8.158 6.637-14.795 14.795-14.795h.253c8.159-.001 14.795 6.636 14.795 14.795z"/><path d="m328.169 213.917h.253c19.186 0 34.795-15.609 34.795-34.795v-30.41c0-19.186-15.609-34.795-34.795-34.795h-.253c-19.186 0-34.795 15.609-34.795 34.795v30.41c0 19.186 15.609 34.795 34.795 34.795zm-14.795-65.204c0-8.158 6.637-14.795 14.795-14.795h.253c8.158 0 14.795 6.637 14.795 14.795v30.41c0 8.158-6.637 14.795-14.795 14.795h-.253c-8.158 0-14.795-6.637-14.795-14.795z"/><circle cx="256.38" cy="30.002" r="10"/></g></svg>